<?xml version="1.0" encoding="UTF-8"?>
<svg xmlns="http://www.w3.org/2000/svg" viewBox="0 0 262.97 106.57">
  <defs>
    <style>
      .cls-1 {
        fill: #dd9132;
        stroke: #dd9132;
        stroke-miterlimit: 10;
        stroke-width: .25px;
      }

      .cls-2 {
        fill: #de9232;
      }

      .cls-2, .cls-3, .cls-4 {
        stroke-width: 0px;
      }

      .cls-3 {
        fill: #fff;
      }

      .cls-4 {
        fill: #0a0a0a;
      }
    </style>
  </defs>
  <g id="Capa_2" data-name="Capa 2">
    <g>
      <rect class="cls-4" x=".5" y=".5" width="261.97" height="105.57"/>
      <path class="cls-4" d="M261.97,1v104.57H1V1h260.97M262.97,0H0v106.57h262.97V0h0Z"/>
    </g>
  </g>
  <g id="Capa_1" data-name="Capa 1">
    <g>
      <g>
        <path class="cls-3" d="M39.08,57.72c-2.51,3.1-4.84,5.97-7.17,8.83-.63.78-2.25.8-2.91.01-2.24-2.7-4.46-5.41-6.69-8.12-.15-.18-.34-.33-.7-.67,0,.53,0,.88,0,1.23,0,4.83,0,9.65,0,14.48,0,1.31-.1,1.41-1.4,1.41-1.81,0-3.63-.02-5.44.01-.82.01-1.17-.3-1.17-1.14.01-9.52.01-19.03,0-28.55,0-.84.34-1.16,1.17-1.14,1.78.03,3.56-.02,5.34.03.32,0,.72.26.93.53,2.17,2.62,4.32,5.26,6.46,7.91.95,1.18,1.88,2.37,2.87,3.62,3.14-3.95,6.25-7.87,9.38-11.78.15-.19.53-.28.8-.28,1.81-.02,3.63,0,5.44-.02.79,0,1.1.34,1.1,1.11,0,9.55,0,19.1,0,28.65,0,.8-.38,1.08-1.14,1.07-1.88-.02-3.77-.04-5.65,0-.95.02-1.25-.38-1.24-1.28.03-5,.01-9.99.01-14.99,0-.2,0-.41,0-.91Z"/>
        <path class="cls-3" d="M95.58,58.36c0,.58,0,.9,0,1.23,0,4.59,0,9.17,0,13.76,0,1.22-.34,1.55-1.58,1.55-1.75,0-3.49,0-5.24,0-.99,0-1.4-.41-1.4-1.42,0-9.31,0-18.62,0-27.93,0-1.1.36-1.46,1.46-1.46,1.64,0,3.29-.04,4.93.03.44.02,1.03.26,1.28.6,2.48,3.34,4.9,6.72,7.34,10.09,1.42,1.95,2.86,3.89,4.53,5.78-.08-.8-.21-1.6-.22-2.4-.03-2.6-.01-5.2-.01-7.8,0-1.64,0-3.29,0-4.93,0-.92.43-1.37,1.36-1.37,1.85,0,3.7,0,5.54,0,.88,0,1.32.41,1.32,1.3,0,9.41,0,18.82,0,28.23,0,.89-.46,1.29-1.33,1.28-1.71,0-3.42.02-5.13-.02-.36,0-.84-.18-1.04-.45-2.33-3.15-4.61-6.35-6.93-9.52-1.54-2.11-3.12-4.2-4.88-6.55Z"/>
        <path class="cls-3" d="M184.84,59.48c.03,2.43-.36,4.76-1.3,7.01-1.19,2.82-3.09,5.01-5.69,6.61-3.35,2.06-7.06,2.62-10.87,2.38-4.43-.27-8.39-1.78-11.43-5.23-1.84-2.1-3-4.53-3.43-7.26-.48-3.07-.46-6.15.55-9.12,1.89-5.6,5.86-8.86,11.61-9.98,4.38-.86,8.71-.61,12.7,1.48,4.32,2.25,6.88,5.91,7.57,10.78.16,1.1.2,2.22.3,3.34ZM168.42,51.07c-5.15-.2-8.29,3.51-8.29,8.39,0,4.83,2.89,8.15,7.5,8.48,6.13.44,9.1-3.94,9.09-8.46-.01-4.9-3.35-8.65-8.3-8.4Z"/>
        <path class="cls-3" d="M141.6,62.98c-2.23,0-4.34,0-6.46,0-1.22,0-1.55-.34-1.55-1.58,0-1.37,0-2.74,0-4.11,0-.89.44-1.3,1.32-1.3,4.18,0,8.35,0,12.53,0,.93,0,1.36.45,1.35,1.37,0,4.01,0,8.01-.02,12.02,0,.36-.16.8-.4,1.07-2.75,3.07-6.28,4.44-10.31,4.88-3.08.34-6.07.19-8.98-.85-5.3-1.88-8.39-5.65-9.48-11.15-.79-4-.58-7.91,1.31-11.51,2.3-4.4,6.04-7.02,10.95-7.95,3.38-.64,6.7-.58,9.96.62,2.26.83,4.2,2.14,5.81,3.92.17.19.19.8.03.98-1.47,1.57-3,3.08-4.59,4.7-1.27-1.45-2.72-2.44-4.51-2.89-3.15-.79-6.12-.41-8.67,1.67-1.47,1.2-2.17,3-2.39,4.86-.26,2.23-.16,4.43,1.01,6.48,1.2,2.09,2.98,3.45,5.31,3.79,2.49.37,5.01.31,7.19-1.27.27-.2.52-.6.55-.92.08-.88.03-1.77.03-2.83Z"/>
        <path class="cls-3" d="M58.36,74.9c-2.53,0-4.93,0-7.32,0-.85,0-1.3-.65-.96-1.43,1.08-2.49,2.2-4.96,3.3-7.44,1.96-4.41,3.92-8.82,5.88-13.22,1.21-2.72,2.43-5.45,3.69-8.15.13-.27.59-.53.9-.54,2.33-.05,4.66-.05,6.98,0,.3,0,.76.29.88.56,2.04,4.55,4.02,9.13,6.04,13.7,1.38,3.13,2.79,6.24,4.18,9.36.86,1.93,1.71,3.86,2.56,5.79.27.61-.14,1.35-.81,1.36-2.4.03-4.79.02-7.19,0-.19,0-.47-.25-.56-.45-.53-1.26-1.04-2.54-1.52-3.82-.27-.72-.61-1.1-1.51-1.08-3.8.07-7.6.07-11.4,0-.88-.02-1.2.35-1.46,1.03-.55,1.44-1.11,2.87-1.69,4.35ZM70.92,62.13c-1.19-2.92-2.37-5.8-3.61-8.84-1.25,3.01-2.45,5.88-3.69,8.84h7.3Z"/>
        <path class="cls-3" d="M212.91,47.37c-1.11,1.65-2.21,3.25-3.28,4.88-.49.75-1.1.86-1.79.4-2.33-1.56-4.91-2.17-7.68-1.97-1.16.08-2.33.3-3.21,1.22-1.01,1.06-.95,2.08.41,2.64,1.25.52,2.61.84,3.95,1.03,3.17.45,6.33.99,8.96,2.94,2.15,1.6,3.39,3.74,3.47,6.55.08,2.64-.66,4.95-2.48,6.81-1.5,1.53-3.4,2.52-5.49,3.02-5.35,1.28-10.49.71-15.36-1.89-.94-.5-1.81-1.16-2.65-1.82-.17-.14-.23-.7-.1-.91,1.02-1.57,2.06-3.14,3.2-4.63.41-.54,1-.84,1.81-.23,2.04,1.55,4.36,2.52,6.97,2.47,1.38-.02,2.75-.23,4.12-.41.33-.05.68-.3.94-.54,1.4-1.26,1.11-2.81-.72-3.31-1.77-.48-3.6-.76-5.41-1.05-2.85-.45-5.6-1.17-7.8-3.15-1.47-1.33-2.34-3.05-2.32-5.08.01-1.31.03-2.66.34-3.92.68-2.79,2.72-4.49,5.21-5.63,2.56-1.18,5.33-1.5,8.11-1.3,3.9.27,7.59,1.3,10.78,3.87Z"/>
      </g>
      <g>
        <path class="cls-2" d="M217.21,68.73c.16-.96.68-1.75,1.26-2.49.75-.96,1.07-2.06,1.24-3.23.22-1.54.15-3.09.05-4.63-.08-1.12-.2-2.23-.13-3.35.21-3.36,1.99-6.28,5.29-7.59,1.7-.67,3.45-.73,5.21-.22.2.06.27.12.16.32-.06.11-.1.23-.13.35-.1.39.07.7.46.86.33.13.66,0,.85-.34.1-.18.17-.37.2-.59.7.29,1.32.69,1.94,1.19-2.14.61-3.89,1.72-5.18,3.49-.25.38-.39.62-.56.95-.97,1.68-1.41,3.51-1.57,5.43-.16,1.9-.3,3.81-.82,5.66-.19.66-.43,1.31-.68,1.95-.34.85-1,1.44-1.62,2.07-.48.49-.97.98-1.3,1.6-.22.4-.35.81-.36,1.26,0,.27-.13.42-.41.43-.74.02-1.47-.06-2.18-.27-.24-.07-.46-.18-.66-.33-.07-.05-.14-.11-.2-.17-.36-.45-.66-.93-.78-1.51v-.14c-.05-.18-.09-.31-.09-.54,0-.05,0-.09,0-.14Z"/>
        <path class="cls-2" d="M228.9,74.92c-.43.04-.86.09-1.28.13-1.25.03-2.49-.04-3.69-.45-1.19-.41-1.85-1.3-2.01-2.54-.18-1.34.52-2.23,1.36-3.08.47-.47.96-.93,1.36-1.46.59-.78.85-1.71,1.13-2.62.53-1.66.69-3.39.84-5.12.14-1.6.3-3.2.9-4.71.25-.63.57-1.21.9-1.8.12-.22.22-.3.43-.6.89-1.11,1.95-2.01,3.25-2.62.73-.34,1.49-.55,2.28-.7.99-.19,1.97-.21,2.95-.07.91.13,1.76.43,2.59.82.17.08.19.15.08.29-.07.1-.12.21-.18.32-.24.46-.13.84.3,1.09.37.22.79.09,1.06-.29.11-.16.11-.46.32-.46.15,0,.32.19.47.31,2.32,1.87,3.65,4.25,3.69,7.26.03,2.19-.7,4.17-1.81,6.03-.92,1.53-2.08,2.88-3.35,4.12-2.22,2.16-4.73,3.89-7.61,5.05-1.28.51-2.61.86-3.97,1.08Z"/>
        <path class="cls-2" d="M241.83,47.53c.25.2.33.21.6.24-.87.63-.99,1.73-1.29,2.64-.1.3-.21.59-.38.86-.11.17-.25.25-.45.14-.21-.11-.23-.29-.12-.45.64-1,.8-2.15,1.07-3.27.05-.22.11-.43.26-.61.11.21.11.27.21.37.06.05.05.05.1.09Z"/>
        <path class="cls-2" d="M231.68,44.72c.16.05.21.07.31.07.06.13-.05.18-.1.24-.46.62-.43,1.35-.52,2.06-.04.34-.07.69-.22,1.02-.08.17-.17.3-.38.23-.23-.07-.23-.26-.18-.44.08-.26.2-.5.24-.77.12-.79.17-1.58.21-2.38,0-.13-.03-.31.11-.36.12-.05.17.15.28.2.03.02.06.04.09.05.07.06.08.05.15.07Z"/>
        <path class="cls-2" d="M241.86,47.47s-.06-.06-.08-.08c-.07-.1-.06-.09-.11-.27-.04-.28.12-.35.36-.34.3,0,.65.33.7.61.03.18-.07.24-.22.25-.24,0-.45-.02-.65-.17Z"/>
        <path class="cls-2" d="M231.52,44.54c-.15-.15-.37-.33-.19-.52.17-.17.45-.16.68,0,.17.13.39.29.35.49-.04.18-.28.16-.47.16-.04,0-.09,0-.15-.02-.08-.02-.1-.04-.22-.11Z"/>
      </g>
      <g>
        <path class="cls-1" d="M123.48,34.55l-1.82-7.23v7.83c0,.43-.1.76-.29.97s-.45.33-.77.33-.56-.11-.76-.32c-.2-.21-.29-.54-.29-.98v-8.98c0-.5.13-.83.39-1,.26-.17.61-.26,1.04-.26h.71c.43,0,.74.04.93.12.19.08.34.22.43.42.09.2.2.53.32.98l1.65,6.21,1.65-6.21c.12-.45.22-.78.32-.98s.24-.34.43-.42c.19-.08.5-.12.93-.12h.71c.44,0,.79.09,1.04.26.26.17.39.51.39,1v8.98c0,.43-.1.76-.29.97s-.45.33-.78.33c-.3,0-.55-.11-.75-.33-.2-.22-.29-.54-.29-.97v-7.83l-1.82,7.23c-.12.47-.22.81-.29,1.03-.07.22-.21.42-.41.6s-.48.27-.84.27c-.27,0-.5-.06-.68-.17-.19-.12-.33-.26-.43-.45-.1-.18-.18-.38-.24-.6-.06-.22-.12-.45-.18-.68Z"/>
        <path class="cls-1" d="M135.28,36.71l.19-.47-2.6-6.55c-.16-.38-.24-.65-.24-.82,0-.18.05-.35.14-.5.09-.15.22-.28.38-.37.16-.09.33-.14.51-.14.3,0,.53.1.69.29s.29.47.41.83l1.79,5.2,1.69-4.84c.13-.39.26-.7.36-.92s.22-.37.34-.45c.12-.08.29-.12.51-.12.16,0,.31.04.46.13s.26.2.34.34.12.3.12.46c-.02.1-.05.24-.1.42-.05.18-.1.36-.17.55l-2.75,7.21c-.24.63-.47,1.13-.7,1.49-.23.36-.53.64-.9.83-.37.19-.88.29-1.51.29s-1.08-.07-1.39-.2c-.31-.13-.46-.38-.46-.74,0-.24.07-.43.22-.56.15-.13.36-.2.65-.2.11,0,.22.02.33.05.13.03.25.05.35.05.24,0,.43-.04.57-.11.14-.07.26-.2.38-.38.11-.18.24-.44.38-.79Z"/>
      </g>
    </g>
  </g>
</svg>